<?xml version="1.0" standalone="no"?>
<!DOCTYPE svg PUBLIC "-//W3C//DTD SVG 20010904//EN"
 "http://www.w3.org/TR/2001/REC-SVG-20010904/DTD/svg10.dtd">
<svg version="1.0" xmlns="http://www.w3.org/2000/svg"
 width="300.000000pt" height="300.000000pt" viewBox="0 0 300.000000 300.000000"
 preserveAspectRatio="xMidYMid meet">

<g transform="translate(0.000000,300.000000) scale(0.100000,-0.100000)"
fill="#660066" stroke="none">
<path d="M483 1690 c-11 -45 -5 -50 22 -20 14 16 29 20 59 18 l41 -3 3 -113 3
-113 -31 -12 c-50 -19 -34 -27 55 -27 47 0 85 4 85 9 0 5 -10 11 -22 13 -22 3
-23 7 -26 126 l-3 122 36 0 c28 0 38 -5 47 -25 17 -38 28 -30 28 21 0 40 -2
45 -17 38 -25 -11 -232 -14 -239 -3 -12 20 -30 7 -41 -31z"/>
<path d="M1913 1713 c-2 -10 -26 -72 -51 -138 -35 -88 -53 -123 -70 -130 -37
-17 -25 -25 38 -25 33 0 60 4 60 10 0 6 -6 10 -14 10 -23 0 -28 18 -16 55 11
33 14 35 55 35 40 0 44 -2 58 -37 16 -41 14 -53 -9 -53 -8 0 -14 -4 -14 -10 0
-6 32 -10 75 -10 76 0 92 7 53 25 -15 7 -35 45 -68 125 -54 135 -67 160 -81
160 -6 0 -13 -8 -16 -17z m22 -126 l15 -37 -35 0 c-23 0 -33 4 -30 13 28 80
27 79 50 24z"/>
<path d="M2153 1711 c-37 -23 -50 -68 -31 -108 13 -27 24 -34 103 -70 46 -21
59 -58 29 -80 -31 -23 -64 -15 -98 22 -18 19 -35 33 -37 30 -3 -2 -3 -20 -1
-39 4 -38 19 -46 85 -46 73 0 111 35 109 103 -1 40 -18 56 -89 88 -44 20 -63
34 -63 47 0 26 20 42 52 42 20 0 31 -8 43 -30 21 -40 35 -38 35 5 0 29 -5 37
-26 45 -39 15 -76 12 -111 -9z"/>
<path d="M2374 1720 c-37 -15 -64 -59 -64 -104 1 -120 164 -148 210 -36 36 87
-57 176 -146 140z m103 -22 c24 -20 42 -70 36 -101 -8 -39 -57 -77 -100 -77
-50 0 -93 45 -93 97 1 40 18 73 40 73 9 0 11 -17 8 -62 -4 -63 -4 -63 24 -64
28 -1 39 11 17 18 -6 2 -9 15 -7 28 4 25 4 25 23 -7 18 -29 65 -52 65 -32 0 5
-3 9 -8 9 -4 0 -13 10 -21 21 -10 18 -10 26 0 45 18 34 -3 54 -55 54 -31 0
-37 3 -26 11 18 12 76 5 97 -13z m-47 -23 c14 -16 6 -35 -16 -35 -8 0 -14 10
-14 25 0 28 12 32 30 10z"/>
<path d="M820 1710 c0 -5 9 -10 20 -10 19 0 20 -7 20 -126 0 -117 -1 -126 -20
-131 -44 -12 -16 -23 55 -23 74 0 100 13 50 26 -23 6 -25 11 -25 61 0 51 2 54
23 51 16 -2 32 -22 57 -70 l35 -68 48 0 c47 0 63 13 30 25 -10 3 -34 32 -54
64 l-37 59 29 21 c37 28 39 72 4 106 -23 23 -31 25 -130 25 -63 0 -105 -4
-105 -10z m176 -36 c24 -35 9 -75 -30 -85 -16 -5 -33 -6 -38 -3 -4 3 -8 30 -8
60 0 53 0 54 30 54 21 0 35 -8 46 -26z"/>
<path d="M1140 1711 c0 -5 9 -11 19 -14 17 -4 20 -16 23 -115 3 -125 13 -145
80 -162 50 -14 102 -4 139 27 29 25 29 25 29 139 0 107 1 114 20 114 11 0 20
5 20 10 0 6 -25 10 -55 10 -30 0 -55 -4 -55 -10 0 -5 8 -10 19 -10 22 0 31
-40 31 -143 0 -59 -3 -71 -25 -92 -29 -30 -83 -33 -114 -7 -18 15 -21 30 -23
127 -3 107 -2 110 20 113 12 2 22 8 22 13 0 5 -34 9 -75 9 -41 0 -75 -4 -75
-9z"/>
<path d="M1500 1711 c0 -5 8 -11 18 -13 22 -6 32 -61 32 -174 0 -64 -2 -73
-20 -79 -42 -13 -17 -25 55 -25 74 0 99 12 50 24 -25 6 -25 6 -25 131 0 120 1
125 21 125 40 0 59 -18 59 -58 0 -42 -14 -62 -43 -62 -34 0 -12 -25 25 -28 81
-7 125 92 64 144 -25 22 -36 24 -132 24 -57 0 -104 -4 -104 -9z"/>
<path d="M590 1351 c0 -6 19 -12 43 -15 54 -8 346 -36 372 -36 20 -1 20 -1 1
-15 -11 -8 -18 -17 -15 -19 2 -3 80 -11 173 -20 93 -8 171 -18 174 -21 3 -3
-2 -5 -12 -5 -9 0 -14 -4 -11 -10 4 -6 69 -10 163 -10 155 0 164 1 500 69 188
37 345 71 349 75 3 3 4 8 1 11 -4 4 -281 -15 -418 -29 -38 -4 -41 -3 -22 6 40
20 23 29 -40 23 -217 -20 -523 -44 -526 -40 -2 2 14 9 37 15 23 6 41 15 41 20
0 6 -152 10 -405 10 -246 0 -405 -4 -405 -9z"/>
</g>
</svg>
